<?xml version="1.0" standalone="no"?>
<!DOCTYPE svg PUBLIC "-//W3C//DTD SVG 20010904//EN"
 "http://www.w3.org/TR/2001/REC-SVG-20010904/DTD/svg10.dtd">
<svg version="1.0" xmlns="http://www.w3.org/2000/svg"
 width="400.000000pt" height="400.000000pt" viewBox="0 0 400.000000 400.000000"
 preserveAspectRatio="xMidYMid meet">
<metadata>
Created by potrace 1.14, written by Peter Selinger 2001-2017
</metadata>
<g transform="translate(0.000000,400.000000) scale(0.100000,-0.100000)"
fill="#000000" stroke="none">
<path d="M1430 2080 l0 -780 585 0 585 0 0 780 0 780 -585 0 -585 0 0 -780z
m1158 3 l2 -763 -570 0 -570 0 0 765 0 765 568 -2 567 -3 3 -762z"/>
<path d="M1624 2423 c-63 -31 -64 -38 -64 -504 0 -369 2 -425 16 -455 30 -62
44 -64 443 -64 404 0 413 2 439 72 18 46 10 79 -27 121 l-29 32 -306 3 -306 3
0 354 c0 396 -2 408 -67 439 -41 19 -59 19 -99 -1z"/>
<path d="M1457 1223 c-4 -3 -7 -24 -7 -45 0 -31 3 -38 20 -38 11 0 20 4 20 9
0 5 11 12 25 15 48 12 21 66 -33 66 -10 0 -22 -3 -25 -7z"/>
<path d="M1560 1185 l0 -45 40 0 c22 0 40 5 40 10 0 6 -11 10 -25 10 -22 0
-25 4 -25 35 0 24 -5 35 -15 35 -11 0 -15 -12 -15 -45z"/>
<path d="M1668 1187 l-14 -43 48 0 c26 0 48 1 48 3 0 1 -7 21 -16 43 -22 55
-47 53 -66 -3z"/>
<path d="M1767 1223 c-4 -3 -7 -24 -7 -45 0 -31 3 -38 20 -38 11 0 20 5 20 12
0 9 3 9 12 0 25 -25 39 -14 36 30 -3 44 -28 67 -29 26 l0 -23 -16 23 c-16 23
-25 27 -36 15z"/>
<path d="M1888 1219 c-23 -13 -24 -65 -2 -73 27 -10 51 -7 65 10 12 15 10 16
-19 10 -28 -7 -32 -5 -32 14 0 19 4 21 33 15 l32 -7 -19 21 c-21 23 -33 25
-58 10z"/>
<path d="M1980 1185 c0 -33 4 -45 15 -45 8 0 15 5 15 12 0 9 3 9 12 0 7 -7 21
-12 32 -12 19 0 19 1 -3 23 -19 21 -20 25 -6 37 8 7 15 16 15 21 0 15 -29 10
-38 -7 -8 -15 -10 -15 -15 0 -12 31 -27 15 -27 -29z"/>
<path d="M2197 1224 c-4 -4 -7 -25 -7 -46 0 -38 0 -38 40 -38 22 0 40 5 40 10
0 6 -9 10 -19 10 -15 0 -21 8 -23 32 -3 31 -17 45 -31 32z"/>
<path d="M2302 1203 c-23 -63 -24 -61 28 -60 l48 1 -12 40 c-15 52 -48 62 -64
19z"/>
<path d="M2400 1184 l0 -45 38 3 c33 3 37 6 38 33 2 39 -12 55 -47 55 -28 0
-29 -2 -29 -46z m47 -20 c-3 -3 -12 -4 -19 -1 -8 3 -5 6 6 6 11 1 17 -2 13 -5z"/>
<path d="M2512 1218 c-19 -19 -14 -36 16 -46 l27 -10 -29 -1 c-22 -1 -27 -4
-19 -12 6 -6 23 -9 39 -7 25 2 29 8 30 33 1 49 -34 73 -64 43z"/>
</g>
</svg>
